<svg id="Capa_1" data-name="Capa 1" xmlns="http://www.w3.org/2000/svg" viewBox="0 0 24 278"><defs><style>.cls-1{fill:#1d1d1b;}</style></defs><path class="cls-1" d="M14.07,44.18a2,2,0,0,1,1.36.5A2.37,2.37,0,0,1,16.18,46a7.65,7.65,0,0,1,.17,1.28c0,.4,0,1.58,0,3.54a3.55,3.55,0,0,1,0,.48c0,.05,0,.08-.09.08s-.11-.14-.11-.42,0-.45-.11-.52a1,1,0,0,0-.6-.11l-7.33-.08c-.25,0-.38.2-.39.59s0,.46-.11.45-.11-.09-.11-.28v-.52l0-3.07c0-2,.71-3,2.06-2.94,1.12,0,1.81.75,2.06,2.23l.05,0a4.3,4.3,0,0,1,.7-1.78A2.1,2.1,0,0,1,14.07,44.18Zm-.08,2c-1.2,0-1.91.32-2.11,1a4.57,4.57,0,0,0-.13,1.16h.74l.91,0,1.1,0A6.29,6.29,0,0,0,16,48.4c.09-.07.14-.26.14-.58C16.13,46.77,15.42,46.24,14,46.22Zm-4.38.2c-1.24,0-1.86.36-1.87,1.11a3.06,3.06,0,0,0,0,.54.38.38,0,0,0,.4.28l3.38,0a2.24,2.24,0,0,0-.38-1.54A2.18,2.18,0,0,0,9.61,46.42Z"/><path class="cls-1" d="M16.35,34.91a.11.11,0,0,1,.12.1,2.53,2.53,0,0,1,0,.49c0,.07,0,.26,0,.57,0,.64,0,1.07,0,1.31v.74c0,.43,0,.72,0,.87s-.05.35-.13.35-.13-.25-.13-.73a.91.91,0,0,0,0-.27q0-.21-.15-.21a4.13,4.13,0,0,0-.54.15l-.83.26c-.19.05-.54.15-1,.32v1.23q0,.54,0,1.14c.17.08.56.23,1.15.45l.83.29a1.1,1.1,0,0,0,.31.06c.14,0,.24-.09.28-.28s0-.25.06-.62c0-.12.05-.18.11-.18s.11.08.11.23l0,2.11v.17c0,.12,0,.18-.13.18s-.08-.14-.1-.4a1,1,0,0,0-.18-.66,5.25,5.25,0,0,0-1.07-.47L13,41.39l-4.24-1.6-.88-.33c-.29-.09-.44-.17-.44-.22s.2-.14.6-.28,2.5-.89,6-2.18l1.36-.5a1.4,1.4,0,0,0,.72-.43,1.82,1.82,0,0,0,.1-.79C16.24,35,16.28,34.91,16.35,34.91Zm-3,4-.24.08c-1,.33-1.69.57-2.09.73l-.49.16-.23.08c.36.16.87.35,1.51.58l1.52.55V39Z"/><path class="cls-1" d="M7.81,26.83c.06,0,.1.14.1.43s.07.58.18.66a.52.52,0,0,0,.21,0l5.44.06c2,0,3,1,3,2.93a2.94,2.94,0,0,1-.93,2.29,3.59,3.59,0,0,1-2.41.59l-4.92-.05c-.27,0-.44,0-.5.12a2.26,2.26,0,0,0-.15.8c0,.1,0,.14-.1.14s-.12-.08-.12-.23V33.53c0-.75,0-1.3,0-1.66s0-.67,0-.56V31c0-.15,0-.22.13-.22s.12.13.12.4.06.58.19.6l.27,0,4.8,0c.69,0,1.13,0,1.32,0a1.93,1.93,0,0,0,1.21-.46,1.67,1.67,0,0,0,.47-1.24,1.43,1.43,0,0,0-.55-1.28,4.21,4.21,0,0,0-2.42-.53L9,28.32H8.45A.47.47,0,0,0,8,28.5a1.1,1.1,0,0,0-.08.5c0,.3-.06.45-.16.45s-.1-.06-.1-.18,0-.31,0-.56,0-.44,0-.56,0-.09,0-.22v-.71C7.7,27,7.74,26.83,7.81,26.83Z"/><path class="cls-1" d="M13.85,19.28h.22l.8.08.87.06h.86c.1,0,.14,0,.14.07s0,.09-.13.14a1.45,1.45,0,0,0-.61.59,3.13,3.13,0,0,1,.8,2.07,4.06,4.06,0,0,1-1.29,2.94,4.45,4.45,0,0,1-3.36,1.32,4.56,4.56,0,0,1-3.26-1.26,4,4,0,0,1-1.28-3.06A3,3,0,0,1,8,20.71a1.27,1.27,0,0,0,.22-.56.63.63,0,0,0-.23-.5q-.18-.16-.18-.21s0-.05.09-.05l.12,0a6.23,6.23,0,0,0,1.07.08h1.41c.15,0,.23,0,.23.13s-.17.13-.51.2c-1.53.29-2.31,1-2.32,2.08,0,.87.54,1.51,1.67,1.92a8.49,8.49,0,0,0,2.76.44,5.28,5.28,0,0,0,3.51-.94A1.69,1.69,0,0,0,16.46,22c0-1.2-.78-2-2.38-2.39-.27-.06-.4-.13-.4-.21S13.74,19.27,13.85,19.28Z"/><path class="cls-1" d="M16.61,14.69c.07,0,.11.05.11.17s0,.11,0,.16c0,.51-.05,1-.05,1.32s0,.95,0,1.69c0,.25,0,.43,0,.55s0,.19-.11.19-.07,0-.08-.07,0-.21,0-.49-.12-.42-.23-.47a4.4,4.4,0,0,0-1-.07L9,17.6H8.35c-.21,0-.32.21-.33.64q0,.36-.09.36c-.06,0-.09,0-.1-.05a2.39,2.39,0,0,1,0-.34c0,.09,0-.06,0-.46v-2.9c0-.11,0-.17.1-.17a.1.1,0,0,1,.09.06,2.34,2.34,0,0,1,0,.39c0,.27.07.43.16.49l.25,0,7.22.08c.36,0,.58,0,.65-.11a2,2,0,0,0,.15-.83C16.51,14.72,16.54,14.69,16.61,14.69Z"/><path class="cls-1" d="M14.25,8.5a2.53,2.53,0,0,1,1.92.85,3,3,0,0,1,.74,2.12,6.61,6.61,0,0,1-.55,2.14.45.45,0,0,0,0,.18c0,.14.15.26.45.34.1,0,.14.06.14.1s-.06.1-.18.1a3.7,3.7,0,0,1-.58-.07,4.79,4.79,0,0,0-.81-.06h-.59l-.51,0c-.14,0-.21-.05-.2-.13s.18-.16.55-.23a2.41,2.41,0,0,0,1.48-.79,2.27,2.27,0,0,0,.58-1.45,1.71,1.71,0,0,0-.42-1.17A1.42,1.42,0,0,0,15.17,10a1.2,1.2,0,0,0-.86.3,8.53,8.53,0,0,0-.93,1.48,5.07,5.07,0,0,1-1.5,1.87,2.82,2.82,0,0,1-1.62.45,2.43,2.43,0,0,1-1.82-.8,2.83,2.83,0,0,1-.7-2,3.69,3.69,0,0,1,.33-1.37,1,1,0,0,0,.1-.34c0-.13-.11-.22-.33-.26s-.11-.06-.11-.12,0-.13.17-.12l.35,0,.49,0c.44,0,.82,0,1.13,0l.1,0c.08,0,.11,0,.11.11s-.14.15-.41.22a2.82,2.82,0,0,0-.82.4,2.17,2.17,0,0,0-.59.58,1.81,1.81,0,0,0-.24.89,1.74,1.74,0,0,0,.34,1.14,1.13,1.13,0,0,0,.94.43,1.25,1.25,0,0,0,.93-.38,7.62,7.62,0,0,0,1-1.51,8.47,8.47,0,0,1,1.25-1.82A2.41,2.41,0,0,1,14.25,8.5Z"/></svg>