<svg id="Capa_1" data-name="Capa 1" xmlns="http://www.w3.org/2000/svg" viewBox="0 0 24 278"><defs><style>.cls-1{fill:#1d1d1b;}</style></defs><path class="cls-1" d="M9,86a2.13,2.13,0,0,1,.42-1.44A1.55,1.55,0,0,1,10.63,84a1.47,1.47,0,0,1,.78.21,1.4,1.4,0,0,1,.54.63,1.94,1.94,0,0,1,.32-.58,1.5,1.5,0,0,1,.53-.43,1.66,1.66,0,0,1,.8-.17,2,2,0,0,1,.94.19,1.67,1.67,0,0,1,.59.52,2.09,2.09,0,0,1,.3.7,3.31,3.31,0,0,1,.09.77v2.82H9Zm1,.17v1.55h1.74V86a1.14,1.14,0,0,0-.23-.68.85.85,0,0,0-1.31,0A1.42,1.42,0,0,0,10,86.12ZM12.66,86v1.71h1.89V85.91a1.49,1.49,0,0,0-.24-.87.84.84,0,0,0-.73-.33.74.74,0,0,0-.55.19,1.05,1.05,0,0,0-.28.48A2,2,0,0,0,12.66,86Z"/><path class="cls-1" d="M10.62,78h4.9v1h-.75a2.58,2.58,0,0,1,.58.66,1.89,1.89,0,0,1,.27,1,2,2,0,0,1-.33,1.13,2.22,2.22,0,0,1-.91.8,2.82,2.82,0,0,1-1.32.3,2.86,2.86,0,0,1-1.33-.3,2.23,2.23,0,0,1-.89-.86,2.31,2.31,0,0,1-.33-1.23,1.77,1.77,0,0,1,.23-.9,2,2,0,0,1,.52-.62h-.64Zm4.11,2.43a1.38,1.38,0,0,0-.22-.79,1.52,1.52,0,0,0-.6-.52,1.83,1.83,0,0,0-.85-.19,1.8,1.8,0,0,0-.85.19,1.56,1.56,0,0,0-.59.52,1.38,1.38,0,0,0-.22.79,1.33,1.33,0,0,0,.22.76,1.45,1.45,0,0,0,.59.53,1.9,1.9,0,0,0,.85.18,2,2,0,0,0,.85-.18,1.54,1.54,0,0,0,.6-.53A1.33,1.33,0,0,0,14.73,80.43Z"/><path class="cls-1" d="M13.57,73.4h-3v-1h4.9v1h-.78a1.94,1.94,0,0,1,.61.63,1.79,1.79,0,0,1,.27,1,1.62,1.62,0,0,1-.53,1.25,2.11,2.11,0,0,1-1.45.47h-3v-1h2.76a1.92,1.92,0,0,0,.69-.12,1,1,0,0,0,.51-.37,1.06,1.06,0,0,0,.2-.66,1.28,1.28,0,0,0-.32-.87A1.12,1.12,0,0,0,13.57,73.4Z"/><path class="cls-1" d="M13.06,70.47a1.68,1.68,0,0,0,1.47-.8,1.5,1.5,0,0,0,.22-.77,1.32,1.32,0,0,0-.25-.81,2.79,2.79,0,0,0-.5-.56l.65-.54a2.24,2.24,0,0,1,.48.49,3.05,3.05,0,0,1,.35.7,2.52,2.52,0,0,1,.14.82,2.31,2.31,0,0,1-1.26,2.07,2.8,2.8,0,0,1-2.6,0A2.32,2.32,0,0,1,10.51,69a2.63,2.63,0,0,1,.28-1.21,1.92,1.92,0,0,1,.71-.8l.66.54a1.82,1.82,0,0,0-.55.61,1.55,1.55,0,0,0-.23.77,1.58,1.58,0,0,0,.22.8,1.7,1.7,0,0,0,.6.56A1.85,1.85,0,0,0,13.06,70.47Z"/><path class="cls-1" d="M9.55,65.44a.66.66,0,0,1-.17.49.6.6,0,0,1-.44.16A.69.69,0,0,1,8.5,65a.61.61,0,0,1,.44-.16.6.6,0,0,1,.42.16A.58.58,0,0,1,9.55,65.44Zm6-.49v1h-4.9V65Z"/><path class="cls-1" d="M11.91,60.66a2.08,2.08,0,0,0-.43.59,1.29,1.29,0,0,0-.17.61,1.72,1.72,0,0,0,0,.39.67.67,0,0,0,.18.32.46.46,0,0,0,.37.13.48.48,0,0,0,.47-.3,4.07,4.07,0,0,0,.26-.73,4.71,4.71,0,0,1,.25-.75,1.58,1.58,0,0,1,.45-.6,1.28,1.28,0,0,1,.83-.24,1.17,1.17,0,0,1,.78.26,1.57,1.57,0,0,1,.5.66,2.09,2.09,0,0,1,.18.85,3,3,0,0,1-.2,1.06,1.92,1.92,0,0,1-.65.88l-.56-.65a2.06,2.06,0,0,0,.45-.58,1.71,1.71,0,0,0,.16-.79,1,1,0,0,0-.06-.35.69.69,0,0,0-.2-.31A.52.52,0,0,0,14.2,61a.45.45,0,0,0-.35.13.9.9,0,0,0-.21.36c-.05.15-.1.32-.15.5a6.14,6.14,0,0,1-.27.79,1.78,1.78,0,0,1-.47.64,1.25,1.25,0,0,1-.83.26,1.15,1.15,0,0,1-.75-.25,1.58,1.58,0,0,1-.48-.65,2.07,2.07,0,0,1-.18-.86A2.91,2.91,0,0,1,10.7,61a1.79,1.79,0,0,1,.6-.85Z"/><path class="cls-1" d="M14.72,51.18a2.15,2.15,0,0,1,.43.55,3.44,3.44,0,0,1,.34.8,3.79,3.79,0,0,1,.13,1,3,3,0,0,1-.42,1.58A3,3,0,0,1,14,56.2a3.63,3.63,0,0,1-1.78.42,3.42,3.42,0,0,1-1.33-.25,3.27,3.27,0,0,1-1.75-1.73,3.22,3.22,0,0,1-.25-1.23,2.94,2.94,0,0,1,.17-1,3.09,3.09,0,0,1,.42-.81,2,2,0,0,1,.55-.55l.7.67a3.1,3.1,0,0,0-.59.77,1.79,1.79,0,0,0-.24.91,2.25,2.25,0,0,0,.28,1.07,2.19,2.19,0,0,0,.8.8,2.35,2.35,0,0,0,1.24.31,2.49,2.49,0,0,0,1.31-.31,2,2,0,0,0,.78-.83,2.52,2.52,0,0,0,.26-1.12,2.13,2.13,0,0,0-.22-1,2.63,2.63,0,0,0-.48-.67Z"/><path class="cls-1" d="M13.06,45.35a2.65,2.65,0,0,1,1.33.33,2.43,2.43,0,0,1,.9.9,2.47,2.47,0,0,1,.33,1.26,2.52,2.52,0,0,1-.33,1.28,2.43,2.43,0,0,1-.9.9,2.83,2.83,0,0,1-2.65,0,2.43,2.43,0,0,1-.9-.9,2.52,2.52,0,0,1-.33-1.28,2.47,2.47,0,0,1,.33-1.26,2.43,2.43,0,0,1,.9-.9A2.64,2.64,0,0,1,13.06,45.35Zm0,1a1.74,1.74,0,0,0-.87.19,1.57,1.57,0,0,0-.59.55,1.54,1.54,0,0,0,0,1.55,1.52,1.52,0,0,0,.59.56,2.09,2.09,0,0,0,1.74,0,1.52,1.52,0,0,0,.59-.56,1.48,1.48,0,0,0,0-1.55,1.57,1.57,0,0,0-.59-.55A1.74,1.74,0,0,0,13.06,46.33Z"/><path class="cls-1" d="M8.61,39.7h6.91v1h-.69a2.16,2.16,0,0,1,.54.63,1.91,1.91,0,0,1,.25,1,2.2,2.2,0,0,1-.33,1.19,2.24,2.24,0,0,1-.91.84,2.68,2.68,0,0,1-1.32.31,2.74,2.74,0,0,1-1.32-.31,2.32,2.32,0,0,1-.9-.83,2.16,2.16,0,0,1-.33-1.18,2,2,0,0,1,.22-1,2,2,0,0,1,.5-.66H8.61Zm6.17,2.42a1.37,1.37,0,0,0-.22-.78,1.45,1.45,0,0,0-.62-.52,2.13,2.13,0,0,0-1.76,0,1.48,1.48,0,0,0-.61.52,1.37,1.37,0,0,0-.22.78,1.35,1.35,0,0,0,.22.78,1.58,1.58,0,0,0,.61.53,2.13,2.13,0,0,0,1.76,0,1.54,1.54,0,0,0,.62-.53A1.35,1.35,0,0,0,14.78,42.12Z"/><path class="cls-1" d="M14.88,34.16h0a2.75,2.75,0,0,1,.51.82,2.78,2.78,0,0,1,.23,1.1,2.7,2.7,0,0,1-.33,1.35,2.33,2.33,0,0,1-.88.91,2.53,2.53,0,0,1-1.29.33,2.73,2.73,0,0,1-1.41-.35,2.45,2.45,0,0,1-.89-.92,2.52,2.52,0,0,1-.32-1.24,2.17,2.17,0,0,1,.31-1.12,2.13,2.13,0,0,1,.83-.8,2.51,2.51,0,0,1,1.25-.3h.41v3.75a1.58,1.58,0,0,0,1-.54A1.77,1.77,0,0,0,14.74,36a1.67,1.67,0,0,0-.19-.83,4.17,4.17,0,0,0-.37-.52Zm-3.49,2a1.77,1.77,0,0,0,.26,1,1.27,1.27,0,0,0,.88.55V34.93h-.06a1.06,1.06,0,0,0-.56.21,1.18,1.18,0,0,0-.38.45A1.3,1.3,0,0,0,11.39,36.17Z"/><path class="cls-1" d="M13.33,33.08h-1V30.39h1Z"/><path class="cls-1" d="M15.52,30.11l-2.46-1.88-2.44,1.89V28.91l1.72-1.33-1.72-1.12V25.32L13,27.06l2.48-1.91v1.18l-1.75,1.35L15.53,29Z"/><rect class="cls-1" x="12.53" width="0.61" height="23.99"/><rect class="cls-1" x="12.53" y="90.8" width="0.61" height="18.13"/></svg>